<svg class="fig-svg" viewBox="0 0 780 196" role="img" aria-label="Timing of action-chunk prefetching, stale-action dropping and overlap blending" xmlns="http://www.w3.org/2000/svg">
<defs><marker id="honor_chunk-ah" viewBox="0 0 10 10" refX="9" refY="5" markerWidth="7" markerHeight="7" orient="auto-start-reverse"><path d="M0,1 L10,5 L0,9 z" class="ah"/></marker><marker id="honor_chunk-ahacc" viewBox="0 0 10 10" refX="9" refY="5" markerWidth="7" markerHeight="7" orient="auto-start-reverse"><path d="M0,1 L10,5 L0,9 z" class="ah k-acc"/></marker><marker id="honor_chunk-ahblue" viewBox="0 0 10 10" refX="9" refY="5" markerWidth="7" markerHeight="7" orient="auto-start-reverse"><path d="M0,1 L10,5 L0,9 z" class="ah k-blue"/></marker><marker id="honor_chunk-ahmut" viewBox="0 0 10 10" refX="9" refY="5" markerWidth="7" markerHeight="7" orient="auto-start-reverse"><path d="M0,1 L10,5 L0,9 z" class="ah k-mut"/></marker></defs>
<rect x="394.0" y="36.0" width="138.0" height="76.0" rx="0" class="band"/>
<rect x="118.0" y="46.0" width="414.0" height="22.0" rx="3" class="box"/>
<rect x="325.0" y="82.0" width="69.0" height="22.0" rx="3" class="box k-mut"/>
<rect x="394.0" y="82.0" width="345.0" height="22.0" rx="3" class="box k-acc"/>
<line x1="394.0" y1="49.0" x2="532.0" y2="65.0" class="ln"/>
<line x1="394.0" y1="101.0" x2="532.0" y2="85.0" class="ln k-acc"/>
<text x="398.0" y="61.0" class="m">w: 1 → 0</text>
<text x="538.0" y="97.0" class="m">w: 0 → 1, then chunk k+1 alone</text>
<text x="256.0" y="61.0" class="m" text-anchor="middle">executing chunk k</text>
<line x1="325.0" y1="30.0" x2="325.0" y2="112.0" class="ln k-mut dash"/>
<text x="320.0" y="26.0" class="s" text-anchor="end">request next chunk (15 steps left)</text>
<line x1="394.0" y1="30.0" x2="394.0" y2="112.0" class="ln k-mut dash"/>
<text x="399.0" y="26.0" class="s">chunk k+1 arrives (≈ 0.23 s)</text>
<text x="104.0" y="61.0" class="t" text-anchor="end">chunk k</text>
<text x="104.0" y="97.0" class="t" text-anchor="end">chunk k+1</text>
<text x="390.0" y="128.0" class="m" text-anchor="end">stale actions dropped (≤ 12)</text>
<text x="398.0" y="128.0" class="m acc">overlap, linearly blended (≤ 13)</text>
<line x1="118.0" y1="144.0" x2="752.8" y2="144.0" class="axis"/>
<line x1="118.0" y1="144.0" x2="118.0" y2="149.0" class="axis"/>
<text x="118.0" y="162.0" class="m" text-anchor="middle">0</text>
<line x1="325.0" y1="144.0" x2="325.0" y2="149.0" class="axis"/>
<text x="325.0" y="162.0" class="m" text-anchor="middle">15</text>
<line x1="394.0" y1="144.0" x2="394.0" y2="149.0" class="axis"/>
<text x="394.0" y="162.0" class="m" text-anchor="middle">20</text>
<line x1="532.0" y1="144.0" x2="532.0" y2="149.0" class="axis"/>
<text x="532.0" y="162.0" class="m" text-anchor="middle">30</text>
<line x1="739.0" y1="144.0" x2="739.0" y2="149.0" class="axis"/>
<text x="739.0" y="162.0" class="m" text-anchor="middle">45</text>
<text x="435.4" y="186.0" class="m" text-anchor="middle">time step (20 Hz)</text>
</svg>
